<?xml version="1.0" standalone="no"?>
<!DOCTYPE svg PUBLIC "-//W3C//DTD SVG 20010904//EN"
 "http://www.w3.org/TR/2001/REC-SVG-20010904/DTD/svg10.dtd">
<svg version="1.0" xmlns="http://www.w3.org/2000/svg"
 width="1100.000000pt" height="1100.000000pt" viewBox="0 0 1100.000000 1100.000000"
 preserveAspectRatio="xMidYMid meet">
<metadata>
Created by potrace 1.16, written by Peter Selinger 2001-2019
</metadata>
<g transform="translate(0.000000,1100.000000) scale(0.100000,-0.100000)"
fill="#000000" stroke="none">
<path d="M3938 8295 c-116 -32 -237 -127 -296 -235 -67 -119 -62 69 -62 -2560
0 -2614 -4 -2440 58 -2554 40 -73 123 -158 189 -193 127 -68 -11 -63 1880 -63
l1713 0 0 2450 0 2450 -1679 0 c-1640 0 -1680 0 -1742 20 -154 47 -236 168
-207 305 14 67 98 152 181 183 l57 22 1695 0 1695 0 0 95 0 95 -1717 -1
c-1371 -1 -1727 -3 -1765 -14z m1909 -1490 c614 -80 993 -444 993 -955 0 -313
-127 -507 -524 -804 -181 -135 -228 -175 -268 -230 -25 -34 -28 -48 -28 -113
l0 -73 -416 0 -416 0 4 153 c4 107 10 165 21 195 29 76 88 152 211 271 281
270 335 335 373 443 62 176 -19 380 -173 437 -114 43 -261 21 -333 -50 -73
-70 -101 -167 -101 -351 l0 -108 -444 0 -443 0 -7 53 c-56 469 196 855 679
1041 101 38 280 81 400 94 129 15 345 13 472 -3z m-16 -2516 c97 -47 166 -115
214 -213 62 -124 59 -270 -6 -397 -28 -56 -121 -152 -176 -182 -99 -53 -250
-72 -375 -46 -180 38 -320 188 -349 374 -33 209 104 422 316 491 27 9 84 13
170 11 127 -2 132 -3 206 -38z"/>
</g>
</svg>
